<svg xmlns="http://www.w3.org/2000/svg" viewBox="0 0 128 128">
  <defs>
    <linearGradient id="g" x1="0" y1="0" x2="1" y2="1">
      <stop offset="0" stop-color="#34d399"/>
      <stop offset="1" stop-color="#2b7a78"/>
    </linearGradient>
  </defs>
  <rect x="8" y="8" width="112" height="112" rx="28" fill="url(#g)"/>
  <g fill="#ffffff">
    <path d="M41 54c0-7 5-12 12-12h22c7 0 12 5 12 12v14c0 14-11 26-25 26S41 82 41 68V54z" opacity="0.95"/>
    <path d="M49 46l-8-10c-2-2-2-6 1-8s7-1 9 2l6 12-8 4z"/>
    <path d="M79 46l8-10c2-2 2-6-1-8s-7-1-9 2l-6 12 8 4z"/>
    <circle cx="56" cy="62" r="4"/>
    <circle cx="72" cy="62" r="4"/>
    <path d="M64 66c-5 0-8 3-8 7 0 6 6 9 8 9s8-3 8-9c0-4-3-7-8-7z" opacity="0.9"/>
  </g>
</svg>
